<svg width="1383" height="362" viewBox="0 0 1383 362" fill="none" xmlns="http://www.w3.org/2000/svg">
<g clip-path="url(#clip0_3897_2)">
<path opacity="0.1" d="M1107.9 361.3C1122.3 303 1134.5 241.8 1134.5 177.2C1134.5 115 1121.5 55.3996 1109.8 -0.400391H274.1C258.1 55.1996 247.4 115.8 247.4 178C247.4 242.7 258.8 303.8 276.1 361.3H1107.9Z" fill="url(#paint0_linear_3897_2)"/>
<path opacity="0.05" d="M187.1 0C167.8 55.6 157.4 115.3 157.4 177.6C157.4 242.3 168.7 304.3 189.5 361.7H1190.5C1211.2 304.3 1222.6 242.2 1222.6 177.6C1222.6 115.4 1212.1 55.6 1192.9 0H187.1Z" fill="url(#paint1_linear_3897_2)"/>
<path opacity="0.1" d="M1016.2 361.7C1028 305.7 1045.8 243.8 1042.6 180C1039.3 115.6 1032 56 1016.2 0H363.7C348 56 339.3 117 339.3 180.8C339.3 244.7 347.9 305.7 363.7 361.7H1016.2Z" fill="url(#paint2_linear_3897_2)"/>
<path opacity="0.1" d="M828.1 361.7C849.7 311.1 862.5 248.3 862.5 180.2C862.5 112.7 849.9 50.3 828.6 0H551.3C530 50.4 517.4 112.7 517.4 180.2C517.4 248.3 530.2 311.1 551.8 361.7H828.1Z" fill="url(#paint3_linear_3897_2)"/>
<path opacity="0.1" d="M923.6 361.7C938.2 306.3 952.5 246.8 952.5 182.1C952.5 116.4 940.2 55 922.8 0L457.1 0.2C438.1 54.6 427.5 114.4 427.5 180.1C427.5 244.8 439 307.2 457.4 361.1L923.6 361.7Z" fill="url(#paint4_linear_3897_2)"/>
<path opacity="0.05" d="M1380 0H0" stroke="url(#paint5_linear_3897_2)" stroke-linecap="round"/>
<path opacity="0.1" d="M1380 60H0" stroke="url(#paint6_linear_3897_2)" stroke-linecap="round"/>
<path opacity="0.2" d="M1380 120H0" stroke="url(#paint7_linear_3897_2)" stroke-linecap="round"/>
<path opacity="0.3" d="M1380 180H0" stroke="url(#paint8_linear_3897_2)" stroke-linecap="round"/>
<path opacity="0.2" d="M1380 240H0" stroke="url(#paint9_linear_3897_2)" stroke-linecap="round"/>
<path opacity="0.1" d="M1380 300H0" stroke="url(#paint10_linear_3897_2)" stroke-linecap="round"/>
<path opacity="0.05" d="M1380 360H0" stroke="url(#paint11_linear_3897_2)" stroke-linecap="round"/>
<path opacity="0.3" d="M630 6.5L614.8 94.1C605 150.6 605 208.4 614.8 265L630 352.6" stroke="url(#paint12_linear_3897_2)" stroke-linecap="round"/>
<path opacity="0.3" d="M540 6.5L524.8 94.1C515 150.6 515 208.4 524.8 265L540 352.6" stroke="url(#paint13_linear_3897_2)" stroke-linecap="round"/>
<path opacity="0.3" d="M450 6.5L434.8 94.1C425 150.6 425 208.4 434.8 265L450 352.6" stroke="url(#paint14_linear_3897_2)" stroke-linecap="round"/>
<path opacity="0.3" d="M360 6.5L344.8 94.1C335 150.6 335 208.4 344.8 265L360 352.6" stroke="url(#paint15_linear_3897_2)" stroke-linecap="round"/>
<path opacity="0.3" d="M270 6.5L254.8 94.1C245 150.6 245 208.4 254.8 265L270 352.6" stroke="url(#paint16_linear_3897_2)" stroke-linecap="round"/>
<path opacity="0.2" d="M180 6.5L164.8 94.1C155 150.6 155 208.4 164.8 265L180 352.6" stroke="url(#paint17_linear_3897_2)" stroke-linecap="round"/>
<path opacity="0.1" d="M90.0002 6.5L74.8002 94.1C65.0002 150.6 65.0002 208.4 74.8002 265L90.0002 352.5" stroke="url(#paint18_linear_3897_2)" stroke-linecap="round"/>
<path opacity="0.3" d="M690 352.5V6.5" stroke="url(#paint19_linear_3897_2)" stroke-linecap="round"/>
<path opacity="0.3" d="M750 352.5L765.2 264.9C775 208.4 775 150.6 765.2 94L750 6.5" stroke="url(#paint20_linear_3897_2)" stroke-linecap="round"/>
<path opacity="0.3" d="M840 352.5L855.2 264.9C865 208.4 865 150.6 855.2 94L840 6.5" stroke="url(#paint21_linear_3897_2)" stroke-linecap="round"/>
<path opacity="0.3" d="M930 352.5L945.2 264.9C955 208.4 955 150.6 945.2 94L930 6.5" stroke="url(#paint22_linear_3897_2)" stroke-linecap="round"/>
<path opacity="0.3" d="M1020 352.5L1035.2 264.9C1045 208.4 1045 150.6 1035.2 94L1020 6.5" stroke="url(#paint23_linear_3897_2)" stroke-linecap="round"/>
<path opacity="0.3" d="M1110 352.5L1125.2 264.9C1135 208.4 1135 150.6 1125.2 94L1110 6.5" stroke="url(#paint24_linear_3897_2)" stroke-linecap="round"/>
<path opacity="0.2" d="M1200 352.5L1215.2 264.9C1225 208.4 1225 150.6 1215.2 94L1200 6.5" stroke="url(#paint25_linear_3897_2)" stroke-linecap="round"/>
<path opacity="0.1" d="M1290 352.5L1305.2 264.9C1315 208.4 1315 150.6 1305.2 94L1290 6.5" stroke="url(#paint26_linear_3897_2)" stroke-linecap="round"/>
<path opacity="0.3" d="M690 122.1C691.105 122.1 692 121.204 692 120.1C692 118.995 691.105 118.1 690 118.1C688.895 118.1 688 118.995 688 120.1C688 121.204 688.895 122.1 690 122.1Z" fill="#448FFE"/>
<path opacity="0.3" d="M690 242C691.105 242 692 241.105 692 240C692 238.895 691.105 238 690 238C688.895 238 688 238.895 688 240C688 241.105 688.895 242 690 242Z" fill="#448FFE"/>
<path opacity="0.4" d="M690 182C691.105 182 692 181.105 692 180C692 178.895 691.105 178 690 178C688.895 178 688 178.895 688 180C688 181.105 688.895 182 690 182Z" fill="#448FFE"/>
<path opacity="0.2" d="M689.9 61.9004C691.005 61.9004 691.9 61.005 691.9 59.9004C691.9 58.7958 691.005 57.9004 689.9 57.9004C688.796 57.9004 687.9 58.7958 687.9 59.9004C687.9 61.005 688.796 61.9004 689.9 61.9004Z" fill="#448FFE"/>
<path opacity="0.2" d="M690 302C691.105 302 692 301.105 692 300C692 298.895 691.105 298 690 298C688.895 298 688 298.895 688 300C688 301.105 688.895 302 690 302Z" fill="#448FFE"/>
<path opacity="0.3" d="M769 122.101C770.105 122.101 771 121.205 771 120.101C771 118.996 770.105 118.101 769 118.101C767.895 118.101 767 118.996 767 120.101C767 121.205 767.895 122.101 769 122.101Z" fill="#448FFE"/>
<path opacity="0.3" d="M768.9 242.101C770.005 242.101 770.9 241.205 770.9 240.101C770.9 238.996 770.005 238.101 768.9 238.101C767.796 238.101 766.9 238.996 766.9 240.101C766.9 241.205 767.796 242.101 768.9 242.101Z" fill="#448FFE"/>
<path opacity="0.4" d="M772.5 182.101C773.605 182.101 774.5 181.205 774.5 180.101C774.5 178.996 773.605 178.101 772.5 178.101C771.395 178.101 770.5 178.996 770.5 180.101C770.5 181.205 771.395 182.101 772.5 182.101Z" fill="#448FFE"/>
<path opacity="0.2" d="M758.9 61.9004C760.005 61.9004 760.9 61.005 760.9 59.9004C760.9 58.7958 760.005 57.9004 758.9 57.9004C757.796 57.9004 756.9 58.7958 756.9 59.9004C756.9 61.005 757.796 61.9004 758.9 61.9004Z" fill="#448FFE"/>
<path opacity="0.2" d="M759 301.9C760.105 301.9 761 301.005 761 299.9C761 298.796 760.105 297.9 759 297.9C757.895 297.9 757 298.796 757 299.9C757 301.005 757.895 301.9 759 301.9Z" fill="#448FFE"/>
<path opacity="0.3" d="M859 121.9C860.105 121.9 861 121.005 861 119.9C861 118.796 860.105 117.9 859 117.9C857.895 117.9 857 118.796 857 119.9C857 121.005 857.895 121.9 859 121.9Z" fill="#448FFE"/>
<path opacity="0.3" d="M858.9 242.101C860.005 242.101 860.9 241.205 860.9 240.101C860.9 238.996 860.005 238.101 858.9 238.101C857.796 238.101 856.9 238.996 856.9 240.101C856.9 241.205 857.796 242.101 858.9 242.101Z" fill="#448FFE"/>
<path opacity="0.4" d="M862.5 182C863.605 182 864.5 181.105 864.5 180C864.5 178.895 863.605 178 862.5 178C861.395 178 860.5 178.895 860.5 180C860.5 181.105 861.395 182 862.5 182Z" fill="#448FFE"/>
<path opacity="0.2" d="M849.2 62C850.305 62 851.2 61.1046 851.2 60C851.2 58.8954 850.305 58 849.2 58C848.096 58 847.2 58.8954 847.2 60C847.2 61.1046 848.096 62 849.2 62Z" fill="#448FFE"/>
<path opacity="0.2" d="M849 302C850.105 302 851 301.105 851 300C851 298.895 850.105 298 849 298C847.895 298 847 298.895 847 300C847 301.105 847.895 302 849 302Z" fill="#448FFE"/>
<path opacity="0.3" d="M949 121.9C950.105 121.9 951 121.005 951 119.9C951 118.796 950.105 117.9 949 117.9C947.895 117.9 947 118.796 947 119.9C947 121.005 947.895 121.9 949 121.9Z" fill="#448FFE"/>
<path opacity="0.3" d="M948.9 242.2C950.005 242.2 950.9 241.305 950.9 240.2C950.9 239.096 950.005 238.2 948.9 238.2C947.796 238.2 946.9 239.096 946.9 240.2C946.9 241.305 947.796 242.2 948.9 242.2Z" fill="#448FFE"/>
<path opacity="0.4" d="M952.5 182.101C953.605 182.101 954.5 181.205 954.5 180.101C954.5 178.996 953.605 178.101 952.5 178.101C951.395 178.101 950.5 178.996 950.5 180.101C950.5 181.205 951.395 182.101 952.5 182.101Z" fill="#448FFE"/>
<path opacity="0.2" d="M939.101 62C940.205 62 941.101 61.1046 941.101 60C941.101 58.8954 940.205 58 939.101 58C937.996 58 937.101 58.8954 937.101 60C937.101 61.1046 937.996 62 939.101 62Z" fill="#448FFE"/>
<path opacity="0.2" d="M939.2 302C940.305 302 941.2 301.105 941.2 300C941.2 298.895 940.305 298 939.2 298C938.096 298 937.2 298.895 937.2 300C937.2 301.105 938.096 302 939.2 302Z" fill="#448FFE"/>
<g opacity="0.4">
<path opacity="0.3" d="M1039 122.101C1040.11 122.101 1041 121.205 1041 120.101C1041 118.996 1040.11 118.101 1039 118.101C1037.9 118.101 1037 118.996 1037 120.101C1037 121.205 1037.9 122.101 1039 122.101Z" fill="#448FFE"/>
<path opacity="0.3" d="M1038.9 242C1040 242 1040.9 241.105 1040.9 240C1040.9 238.895 1040 238 1038.9 238C1037.8 238 1036.9 238.895 1036.9 240C1036.9 241.105 1037.8 242 1038.9 242Z" fill="#448FFE"/>
<path opacity="0.4" d="M1042.6 182C1043.71 182 1044.6 181.105 1044.6 180C1044.6 178.895 1043.71 178 1042.6 178C1041.5 178 1040.6 178.895 1040.6 180C1040.6 181.105 1041.5 182 1042.6 182Z" fill="#448FFE"/>
<path opacity="0.2" d="M1029.4 62.2002C1030.5 62.2002 1031.4 61.3048 1031.4 60.2002C1031.4 59.0956 1030.5 58.2002 1029.4 58.2002C1028.3 58.2002 1027.4 59.0956 1027.4 60.2002C1027.4 61.3048 1028.3 62.2002 1029.4 62.2002Z" fill="#448FFE"/>
<path opacity="0.2" d="M1029.1 302.101C1030.21 302.101 1031.1 301.205 1031.1 300.101C1031.1 298.996 1030.21 298.101 1029.1 298.101C1028 298.101 1027.1 298.996 1027.1 300.101C1027.1 301.205 1028 302.101 1029.1 302.101Z" fill="#448FFE"/>
</g>
<g opacity="0.3">
<path opacity="0.3" d="M1128.8 122C1129.9 122 1130.8 121.105 1130.8 120C1130.8 118.895 1129.9 118 1128.8 118C1127.7 118 1126.8 118.895 1126.8 120C1126.8 121.105 1127.7 122 1128.8 122Z" fill="#448FFE"/>
<path opacity="0.3" d="M1128.8 241.9C1129.9 241.9 1130.8 241.005 1130.8 239.9C1130.8 238.796 1129.9 237.9 1128.8 237.9C1127.7 237.9 1126.8 238.796 1126.8 239.9C1126.8 241.005 1127.7 241.9 1128.8 241.9Z" fill="#448FFE"/>
<path opacity="0.4" d="M1132.5 182C1133.6 182 1134.5 181.105 1134.5 180C1134.5 178.895 1133.6 178 1132.5 178C1131.4 178 1130.5 178.895 1130.5 180C1130.5 181.105 1131.4 182 1132.5 182Z" fill="#448FFE"/>
<path opacity="0.2" d="M1119.2 62C1120.3 62 1121.2 61.1046 1121.2 60C1121.2 58.8954 1120.3 58 1119.2 58C1118.1 58 1117.2 58.8954 1117.2 60C1117.2 61.1046 1118.1 62 1119.2 62Z" fill="#448FFE"/>
<path opacity="0.2" d="M1119 302.3C1120.1 302.3 1121 301.404 1121 300.3C1121 299.195 1120.1 298.3 1119 298.3C1117.9 298.3 1117 299.195 1117 300.3C1117 301.404 1117.9 302.3 1119 302.3Z" fill="#448FFE"/>
</g>
<g opacity="0.2">
<path opacity="0.3" d="M1219 122C1220.1 122 1221 121.105 1221 120C1221 118.895 1220.1 118 1219 118C1217.9 118 1217 118.895 1217 120C1217 121.105 1217.9 122 1219 122Z" fill="#448FFE"/>
<path opacity="0.3" d="M1218.9 242.1C1220 242.1 1220.9 241.204 1220.9 240.1C1220.9 238.995 1220 238.1 1218.9 238.1C1217.8 238.1 1216.9 238.995 1216.9 240.1C1216.9 241.204 1217.8 242.1 1218.9 242.1Z" fill="#448FFE"/>
<path opacity="0.4" d="M1222.5 182C1223.6 182 1224.5 181.105 1224.5 180C1224.5 178.895 1223.6 178 1222.5 178C1221.4 178 1220.5 178.895 1220.5 180C1220.5 181.105 1221.4 182 1222.5 182Z" fill="#448FFE"/>
<path opacity="0.2" d="M1209.2 62C1210.3 62 1211.2 61.1046 1211.2 60C1211.2 58.8954 1210.3 58 1209.2 58C1208.1 58 1207.2 58.8954 1207.2 60C1207.2 61.1046 1208.1 62 1209.2 62Z" fill="#448FFE"/>
<path opacity="0.2" d="M1209 302.1C1210.1 302.1 1211 301.204 1211 300.1C1211 298.995 1210.1 298.1 1209 298.1C1207.9 298.1 1207 298.995 1207 300.1C1207 301.204 1207.9 302.1 1209 302.1Z" fill="#448FFE"/>
</g>
<g opacity="0.1">
<path opacity="0.3" d="M1309 121.801C1310.11 121.801 1311 120.905 1311 119.801C1311 118.696 1310.11 117.801 1309 117.801C1307.9 117.801 1307 118.696 1307 119.801C1307 120.905 1307.9 121.801 1309 121.801Z" fill="#448FFE"/>
<path opacity="0.3" d="M1308.8 242C1309.91 242 1310.8 241.105 1310.8 240C1310.8 238.895 1309.91 238 1308.8 238C1307.7 238 1306.8 238.895 1306.8 240C1306.8 241.105 1307.7 242 1308.8 242Z" fill="#448FFE"/>
<path opacity="0.4" d="M1312.5 182C1313.61 182 1314.5 181.105 1314.5 180C1314.5 178.895 1313.61 178 1312.5 178C1311.4 178 1310.5 178.895 1310.5 180C1310.5 181.105 1311.4 182 1312.5 182Z" fill="#448FFE"/>
<path opacity="0.2" d="M1299.3 61.9004C1300.41 61.9004 1301.3 61.005 1301.3 59.9004C1301.3 58.7958 1300.41 57.9004 1299.3 57.9004C1298.2 57.9004 1297.3 58.7958 1297.3 59.9004C1297.3 61.005 1298.2 61.9004 1299.3 61.9004Z" fill="#448FFE"/>
<path opacity="0.2" d="M1299.1 301.9C1300.21 301.9 1301.1 301.005 1301.1 299.9C1301.1 298.796 1300.21 297.9 1299.1 297.9C1298 297.9 1297.1 298.796 1297.1 299.9C1297.1 301.005 1298 301.9 1299.1 301.9Z" fill="#448FFE"/>
</g>
<path opacity="0.3" d="M610.9 122.101C612.005 122.101 612.9 121.205 612.9 120.101C612.9 118.996 612.005 118.101 610.9 118.101C609.796 118.101 608.9 118.996 608.9 120.101C608.9 121.205 609.796 122.101 610.9 122.101Z" fill="#448FFE"/>
<path opacity="0.3" d="M611 242.101C612.105 242.101 613 241.205 613 240.101C613 238.996 612.105 238.101 611 238.101C609.895 238.101 609 238.996 609 240.101C609 241.205 609.895 242.101 611 242.101Z" fill="#448FFE"/>
<path opacity="0.4" d="M607.4 182.101C608.505 182.101 609.4 181.205 609.4 180.101C609.4 178.996 608.505 178.101 607.4 178.101C606.296 178.101 605.4 178.996 605.4 180.101C605.4 181.205 606.296 182.101 607.4 182.101Z" fill="#448FFE"/>
<path opacity="0.2" d="M621 61.9004C622.105 61.9004 623 61.005 623 59.9004C623 58.7958 622.105 57.9004 621 57.9004C619.895 57.9004 619 58.7958 619 59.9004C619 61.005 619.895 61.9004 621 61.9004Z" fill="#448FFE"/>
<path opacity="0.2" d="M620.9 301.9C622.005 301.9 622.9 301.005 622.9 299.9C622.9 298.796 622.005 297.9 620.9 297.9C619.796 297.9 618.9 298.796 618.9 299.9C618.9 301.005 619.796 301.9 620.9 301.9Z" fill="#448FFE"/>
<path opacity="0.3" d="M520.9 121.9C522.005 121.9 522.9 121.005 522.9 119.9C522.9 118.796 522.005 117.9 520.9 117.9C519.796 117.9 518.9 118.796 518.9 119.9C518.9 121.005 519.796 121.9 520.9 121.9Z" fill="#448FFE"/>
<path opacity="0.3" d="M521 242.101C522.105 242.101 523 241.205 523 240.101C523 238.996 522.105 238.101 521 238.101C519.895 238.101 519 238.996 519 240.101C519 241.205 519.895 242.101 521 242.101Z" fill="#448FFE"/>
<path opacity="0.4" d="M517.4 182C518.505 182 519.4 181.105 519.4 180C519.4 178.895 518.505 178 517.4 178C516.296 178 515.4 178.895 515.4 180C515.4 181.105 516.296 182 517.4 182Z" fill="#448FFE"/>
<path opacity="0.2" d="M530.7 62C531.805 62 532.7 61.1046 532.7 60C532.7 58.8954 531.805 58 530.7 58C529.596 58 528.7 58.8954 528.7 60C528.7 61.1046 529.596 62 530.7 62Z" fill="#448FFE"/>
<path opacity="0.2" d="M530.9 302C532.005 302 532.9 301.105 532.9 300C532.9 298.895 532.005 298 530.9 298C529.796 298 528.9 298.895 528.9 300C528.9 301.105 529.796 302 530.9 302Z" fill="#448FFE"/>
<path opacity="0.3" d="M430.9 121.9C432.005 121.9 432.9 121.005 432.9 119.9C432.9 118.796 432.005 117.9 430.9 117.9C429.796 117.9 428.9 118.796 428.9 119.9C428.9 121.005 429.796 121.9 430.9 121.9Z" fill="#448FFE"/>
<path opacity="0.3" d="M431 242.2C432.105 242.2 433 241.305 433 240.2C433 239.096 432.105 238.2 431 238.2C429.895 238.2 429 239.096 429 240.2C429 241.305 429.895 242.2 431 242.2Z" fill="#448FFE"/>
<path opacity="0.4" d="M427.4 182.101C428.505 182.101 429.4 181.205 429.4 180.101C429.4 178.996 428.505 178.101 427.4 178.101C426.296 178.101 425.4 178.996 425.4 180.101C425.4 181.205 426.296 182.101 427.4 182.101Z" fill="#448FFE"/>
<path opacity="0.2" d="M440.801 62C441.905 62 442.801 61.1046 442.801 60C442.801 58.8954 441.905 58 440.801 58C439.696 58 438.801 58.8954 438.801 60C438.801 61.1046 439.696 62 440.801 62Z" fill="#448FFE"/>
<path opacity="0.2" d="M440.7 302C441.805 302 442.7 301.105 442.7 300C442.7 298.895 441.805 298 440.7 298C439.596 298 438.7 298.895 438.7 300C438.7 301.105 439.596 302 440.7 302Z" fill="#448FFE"/>
<g opacity="0.4">
<path opacity="0.3" d="M340.9 122.101C342.005 122.101 342.9 121.205 342.9 120.101C342.9 118.996 342.005 118.101 340.9 118.101C339.796 118.101 338.9 118.996 338.9 120.101C338.9 121.205 339.796 122.101 340.9 122.101Z" fill="#448FFE"/>
<path opacity="0.3" d="M341.001 242C342.106 242 343.001 241.105 343.001 240C343.001 238.895 342.106 238 341.001 238C339.896 238 339.001 238.895 339.001 240C339.001 241.105 339.896 242 341.001 242Z" fill="#448FFE"/>
<path opacity="0.4" d="M337.301 182C338.405 182 339.301 181.105 339.301 180C339.301 178.895 338.405 178 337.301 178C336.196 178 335.301 178.895 335.301 180C335.301 181.105 336.196 182 337.301 182Z" fill="#448FFE"/>
<path opacity="0.2" d="M350.501 62.2002C351.606 62.2002 352.501 61.3048 352.501 60.2002C352.501 59.0956 351.606 58.2002 350.501 58.2002C349.396 58.2002 348.501 59.0956 348.501 60.2002C348.501 61.3048 349.396 62.2002 350.501 62.2002Z" fill="#448FFE"/>
<path opacity="0.2" d="M350.801 302.101C351.905 302.101 352.801 301.205 352.801 300.101C352.801 298.996 351.905 298.101 350.801 298.101C349.696 298.101 348.801 298.996 348.801 300.101C348.801 301.205 349.696 302.101 350.801 302.101Z" fill="#448FFE"/>
</g>
<g opacity="0.3">
<path opacity="0.3" d="M251.101 122C252.205 122 253.101 121.105 253.101 120C253.101 118.895 252.205 118 251.101 118C249.996 118 249.101 118.895 249.101 120C249.101 121.105 249.996 122 251.101 122Z" fill="#448FFE"/>
<path opacity="0.3" d="M251.101 241.9C252.205 241.9 253.101 241.005 253.101 239.9C253.101 238.796 252.205 237.9 251.101 237.9C249.996 237.9 249.101 238.796 249.101 239.9C249.101 241.005 249.996 241.9 251.101 241.9Z" fill="#448FFE"/>
<path opacity="0.4" d="M247.4 182C248.505 182 249.4 181.105 249.4 180C249.4 178.895 248.505 178 247.4 178C246.296 178 245.4 178.895 245.4 180C245.4 181.105 246.296 182 247.4 182Z" fill="#448FFE"/>
<path opacity="0.2" d="M260.7 62C261.805 62 262.7 61.1046 262.7 60C262.7 58.8954 261.805 58 260.7 58C259.596 58 258.7 58.8954 258.7 60C258.7 61.1046 259.596 62 260.7 62Z" fill="#448FFE"/>
<path opacity="0.2" d="M260.9 302.3C262.005 302.3 262.9 301.404 262.9 300.3C262.9 299.195 262.005 298.3 260.9 298.3C259.796 298.3 258.9 299.195 258.9 300.3C258.9 301.404 259.796 302.3 260.9 302.3Z" fill="#448FFE"/>
</g>
<g opacity="0.2">
<path opacity="0.3" d="M160.9 122C162.005 122 162.9 121.105 162.9 120C162.9 118.895 162.005 118 160.9 118C159.796 118 158.9 118.895 158.9 120C158.9 121.105 159.796 122 160.9 122Z" fill="#448FFE"/>
<path opacity="0.3" d="M161 242.1C162.105 242.1 163 241.204 163 240.1C163 238.995 162.105 238.1 161 238.1C159.895 238.1 159 238.995 159 240.1C159 241.204 159.895 242.1 161 242.1Z" fill="#448FFE"/>
<path opacity="0.4" d="M157.4 182C158.505 182 159.4 181.105 159.4 180C159.4 178.895 158.505 178 157.4 178C156.296 178 155.4 178.895 155.4 180C155.4 181.105 156.296 182 157.4 182Z" fill="#448FFE"/>
<path opacity="0.2" d="M170.7 62C171.805 62 172.7 61.1046 172.7 60C172.7 58.8954 171.805 58 170.7 58C169.596 58 168.7 58.8954 168.7 60C168.7 61.1046 169.596 62 170.7 62Z" fill="#448FFE"/>
<path opacity="0.2" d="M170.9 302.1C172.005 302.1 172.9 301.204 172.9 300.1C172.9 298.995 172.005 298.1 170.9 298.1C169.796 298.1 168.9 298.995 168.9 300.1C168.9 301.204 169.796 302.1 170.9 302.1Z" fill="#448FFE"/>
</g>
<g opacity="0.1">
<path opacity="0.3" d="M70.9004 121.801C72.005 121.801 72.9004 120.905 72.9004 119.801C72.9004 118.696 72.005 117.801 70.9004 117.801C69.7958 117.801 68.9004 118.696 68.9004 119.801C68.9004 120.905 69.7958 121.801 70.9004 121.801Z" fill="#448FFE"/>
<path opacity="0.3" d="M71.1006 242C72.2052 242 73.1006 241.105 73.1006 240C73.1006 238.895 72.2052 238 71.1006 238C69.996 238 69.1006 238.895 69.1006 240C69.1006 241.105 69.996 242 71.1006 242Z" fill="#448FFE"/>
<path opacity="0.4" d="M67.4004 182C68.505 182 69.4004 181.105 69.4004 180C69.4004 178.895 68.505 178 67.4004 178C66.2958 178 65.4004 178.895 65.4004 180C65.4004 181.105 66.2958 182 67.4004 182Z" fill="#448FFE"/>
<path opacity="0.2" d="M80.6006 61.9004C81.7052 61.9004 82.6006 61.005 82.6006 59.9004C82.6006 58.7958 81.7052 57.9004 80.6006 57.9004C79.496 57.9004 78.6006 58.7958 78.6006 59.9004C78.6006 61.005 79.496 61.9004 80.6006 61.9004Z" fill="#448FFE"/>
<path opacity="0.2" d="M80.8008 301.9C81.9054 301.9 82.8008 301.005 82.8008 299.9C82.8008 298.796 81.9054 297.9 80.8008 297.9C79.6962 297.9 78.8008 298.796 78.8008 299.9C78.8008 301.005 79.6962 301.9 80.8008 301.9Z" fill="#448FFE"/>
</g>
<path opacity="0.1" d="M739.5 361.7C757.2 311.6 772.4 257.3 772.4 185C772.4 107.5 757.5 39.4 735 0H645.4C622.9 39.4 608 107.5 608 185C608 257.3 620.9 321.5 640.9 361.7H739.5Z" fill="url(#paint27_linear_3897_2)"/>
<g filter="url(#filter0_f_3897_2)">
<ellipse cx="691.5" cy="181" rx="691.5" ry="161" fill="url(#paint28_radial_3897_2)" fill-opacity="0.7"/>
</g>
</g>
<defs>
<filter id="filter0_f_3897_2" x="-224" y="-204" width="1831" height="770" filterUnits="userSpaceOnUse" color-interpolation-filters="sRGB">
<feFlood flood-opacity="0" result="BackgroundImageFix"/>
<feBlend mode="normal" in="SourceGraphic" in2="BackgroundImageFix" result="shape"/>
<feGaussianBlur stdDeviation="112" result="effect1_foregroundBlur_3897_2"/>
</filter>
<linearGradient id="paint0_linear_3897_2" x1="690.956" y1="361.304" x2="690.956" y2="-0.39319" gradientUnits="userSpaceOnUse">
<stop stop-color="#448FFE" stop-opacity="0"/>
<stop offset="0.5" stop-color="#448FFE"/>
<stop offset="0.9993" stop-color="#448FFE" stop-opacity="0"/>
</linearGradient>
<linearGradient id="paint1_linear_3897_2" x1="689.953" y1="361.724" x2="689.953" y2="0.0270779" gradientUnits="userSpaceOnUse">
<stop stop-color="#448FFE" stop-opacity="0"/>
<stop offset="0.5" stop-color="#448FFE"/>
<stop offset="0.9993" stop-color="#448FFE" stop-opacity="0"/>
</linearGradient>
<linearGradient id="paint2_linear_3897_2" x1="691.148" y1="361.724" x2="691.148" y2="0.0270779" gradientUnits="userSpaceOnUse">
<stop stop-color="#448FFE" stop-opacity="0"/>
<stop offset="0.5" stop-color="#448FFE"/>
<stop offset="0.9993" stop-color="#448FFE" stop-opacity="0"/>
</linearGradient>
<linearGradient id="paint3_linear_3897_2" x1="689.953" y1="361.724" x2="689.953" y2="0.0270779" gradientUnits="userSpaceOnUse">
<stop stop-color="#448FFE" stop-opacity="0"/>
<stop offset="0.5" stop-color="#448FFE"/>
<stop offset="0.9993" stop-color="#448FFE" stop-opacity="0"/>
</linearGradient>
<linearGradient id="paint4_linear_3897_2" x1="689.953" y1="361.684" x2="689.953" y2="-0.0128059" gradientUnits="userSpaceOnUse">
<stop stop-color="#448FFE" stop-opacity="0"/>
<stop offset="0.5" stop-color="#448FFE"/>
<stop offset="0.9993" stop-color="#448FFE" stop-opacity="0"/>
</linearGradient>
<linearGradient id="paint5_linear_3897_2" x1="-nan" y1="-nan" x2="-nan" y2="-nan" gradientUnits="userSpaceOnUse">
<stop stop-color="#448FFE" stop-opacity="0"/>
<stop offset="0.495" stop-color="#448FFE"/>
<stop offset="1" stop-color="#448FFE" stop-opacity="0"/>
</linearGradient>
<linearGradient id="paint6_linear_3897_2" x1="-nan" y1="-nan" x2="-nan" y2="-nan" gradientUnits="userSpaceOnUse">
<stop stop-color="#448FFE" stop-opacity="0"/>
<stop offset="0.495" stop-color="#448FFE"/>
<stop offset="1" stop-color="#448FFE" stop-opacity="0"/>
</linearGradient>
<linearGradient id="paint7_linear_3897_2" x1="-nan" y1="-nan" x2="-nan" y2="-nan" gradientUnits="userSpaceOnUse">
<stop stop-color="#448FFE" stop-opacity="0"/>
<stop offset="0.495" stop-color="#448FFE"/>
<stop offset="1" stop-color="#448FFE" stop-opacity="0"/>
</linearGradient>
<linearGradient id="paint8_linear_3897_2" x1="-nan" y1="-nan" x2="-nan" y2="-nan" gradientUnits="userSpaceOnUse">
<stop stop-color="#448FFE" stop-opacity="0"/>
<stop offset="0.495" stop-color="#448FFE"/>
<stop offset="1" stop-color="#448FFE" stop-opacity="0"/>
</linearGradient>
<linearGradient id="paint9_linear_3897_2" x1="-nan" y1="-nan" x2="-nan" y2="-nan" gradientUnits="userSpaceOnUse">
<stop stop-color="#448FFE" stop-opacity="0"/>
<stop offset="0.495" stop-color="#448FFE"/>
<stop offset="1" stop-color="#448FFE" stop-opacity="0"/>
</linearGradient>
<linearGradient id="paint10_linear_3897_2" x1="-nan" y1="-nan" x2="-nan" y2="-nan" gradientUnits="userSpaceOnUse">
<stop stop-color="#448FFE" stop-opacity="0"/>
<stop offset="0.495" stop-color="#448FFE"/>
<stop offset="1" stop-color="#448FFE" stop-opacity="0"/>
</linearGradient>
<linearGradient id="paint11_linear_3897_2" x1="-nan" y1="-nan" x2="-nan" y2="-nan" gradientUnits="userSpaceOnUse">
<stop stop-color="#448FFE" stop-opacity="0"/>
<stop offset="0.495" stop-color="#448FFE"/>
<stop offset="1" stop-color="#448FFE" stop-opacity="0"/>
</linearGradient>
<linearGradient id="paint12_linear_3897_2" x1="618.731" y1="6.5001" x2="618.731" y2="352.5" gradientUnits="userSpaceOnUse">
<stop stop-color="#448FFE" stop-opacity="0"/>
<stop offset="0.495" stop-color="#448FFE"/>
<stop offset="1" stop-color="#448FFE" stop-opacity="0"/>
</linearGradient>
<linearGradient id="paint13_linear_3897_2" x1="528.731" y1="6.5001" x2="528.731" y2="352.5" gradientUnits="userSpaceOnUse">
<stop stop-color="#448FFE" stop-opacity="0"/>
<stop offset="0.495" stop-color="#448FFE"/>
<stop offset="1" stop-color="#448FFE" stop-opacity="0"/>
</linearGradient>
<linearGradient id="paint14_linear_3897_2" x1="438.731" y1="6.5001" x2="438.731" y2="352.5" gradientUnits="userSpaceOnUse">
<stop stop-color="#448FFE" stop-opacity="0"/>
<stop offset="0.495" stop-color="#448FFE"/>
<stop offset="1" stop-color="#448FFE" stop-opacity="0"/>
</linearGradient>
<linearGradient id="paint15_linear_3897_2" x1="348.731" y1="6.5001" x2="348.731" y2="352.5" gradientUnits="userSpaceOnUse">
<stop stop-color="#448FFE" stop-opacity="0"/>
<stop offset="0.495" stop-color="#448FFE"/>
<stop offset="1" stop-color="#448FFE" stop-opacity="0"/>
</linearGradient>
<linearGradient id="paint16_linear_3897_2" x1="258.731" y1="6.5001" x2="258.731" y2="352.5" gradientUnits="userSpaceOnUse">
<stop stop-color="#448FFE" stop-opacity="0"/>
<stop offset="0.495" stop-color="#448FFE"/>
<stop offset="1" stop-color="#448FFE" stop-opacity="0"/>
</linearGradient>
<linearGradient id="paint17_linear_3897_2" x1="168.731" y1="6.5001" x2="168.731" y2="352.5" gradientUnits="userSpaceOnUse">
<stop stop-color="#448FFE" stop-opacity="0"/>
<stop offset="0.495" stop-color="#448FFE"/>
<stop offset="1" stop-color="#448FFE" stop-opacity="0"/>
</linearGradient>
<linearGradient id="paint18_linear_3897_2" x1="78.7312" y1="6.5001" x2="78.7312" y2="352.5" gradientUnits="userSpaceOnUse">
<stop stop-color="#448FFE" stop-opacity="0"/>
<stop offset="0.495" stop-color="#448FFE"/>
<stop offset="1" stop-color="#448FFE" stop-opacity="0"/>
</linearGradient>
<linearGradient id="paint19_linear_3897_2" x1="-nan" y1="-nan" x2="-nan" y2="-nan" gradientUnits="userSpaceOnUse">
<stop stop-color="#448FFE" stop-opacity="0"/>
<stop offset="0.495" stop-color="#448FFE"/>
<stop offset="1" stop-color="#448FFE" stop-opacity="0"/>
</linearGradient>
<linearGradient id="paint20_linear_3897_2" x1="761.269" y1="352.5" x2="761.269" y2="6.50008" gradientUnits="userSpaceOnUse">
<stop stop-color="#448FFE" stop-opacity="0"/>
<stop offset="0.495" stop-color="#448FFE"/>
<stop offset="1" stop-color="#448FFE" stop-opacity="0"/>
</linearGradient>
<linearGradient id="paint21_linear_3897_2" x1="851.269" y1="352.5" x2="851.269" y2="6.50008" gradientUnits="userSpaceOnUse">
<stop stop-color="#448FFE" stop-opacity="0"/>
<stop offset="0.495" stop-color="#448FFE"/>
<stop offset="1" stop-color="#448FFE" stop-opacity="0"/>
</linearGradient>
<linearGradient id="paint22_linear_3897_2" x1="941.269" y1="352.5" x2="941.269" y2="6.50008" gradientUnits="userSpaceOnUse">
<stop stop-color="#448FFE" stop-opacity="0"/>
<stop offset="0.495" stop-color="#448FFE"/>
<stop offset="1" stop-color="#448FFE" stop-opacity="0"/>
</linearGradient>
<linearGradient id="paint23_linear_3897_2" x1="1031.27" y1="352.5" x2="1031.27" y2="6.50008" gradientUnits="userSpaceOnUse">
<stop stop-color="#448FFE" stop-opacity="0"/>
<stop offset="0.495" stop-color="#448FFE"/>
<stop offset="1" stop-color="#448FFE" stop-opacity="0"/>
</linearGradient>
<linearGradient id="paint24_linear_3897_2" x1="1121.27" y1="352.5" x2="1121.27" y2="6.50008" gradientUnits="userSpaceOnUse">
<stop stop-color="#448FFE" stop-opacity="0"/>
<stop offset="0.495" stop-color="#448FFE"/>
<stop offset="1" stop-color="#448FFE" stop-opacity="0"/>
</linearGradient>
<linearGradient id="paint25_linear_3897_2" x1="1211.27" y1="352.5" x2="1211.27" y2="6.50008" gradientUnits="userSpaceOnUse">
<stop stop-color="#448FFE" stop-opacity="0"/>
<stop offset="0.495" stop-color="#448FFE"/>
<stop offset="1" stop-color="#448FFE" stop-opacity="0"/>
</linearGradient>
<linearGradient id="paint26_linear_3897_2" x1="1301.27" y1="352.5" x2="1301.27" y2="6.50008" gradientUnits="userSpaceOnUse">
<stop stop-color="#448FFE" stop-opacity="0"/>
<stop offset="0.495" stop-color="#448FFE"/>
<stop offset="1" stop-color="#448FFE" stop-opacity="0"/>
</linearGradient>
<linearGradient id="paint27_linear_3897_2" x1="690.3" y1="361.724" x2="690.3" y2="0.0270779" gradientUnits="userSpaceOnUse">
<stop stop-color="#448FFE" stop-opacity="0"/>
<stop offset="0.5" stop-color="#448FFE"/>
<stop offset="0.9993" stop-color="#448FFE" stop-opacity="0"/>
</linearGradient>
<radialGradient id="paint28_radial_3897_2" cx="0" cy="0" r="1" gradientUnits="userSpaceOnUse" gradientTransform="translate(691.5 181) scale(691.5 161)">
<stop stop-color="#448FFE"/>
<stop offset="0.437975" stop-color="#0044A9" stop-opacity="0"/>
</radialGradient>
<clipPath id="clip0_3897_2">
<rect width="1382.8" height="361.7" fill="white"/>
</clipPath>
</defs>
</svg>
